<svg xmlns="http://www.w3.org/2000/svg" viewBox="0 0 500 400">
  <defs>
    <marker id="ag" markerWidth="8" markerHeight="6" refX="8" refY="3" orient="auto"><polygon points="0 0, 8 3, 0 6" fill="#22c55e"/></marker>
    <marker id="aw" markerWidth="8" markerHeight="6" refX="8" refY="3" orient="auto"><polygon points="0 0, 8 3, 0 6" fill="white"/></marker>
  </defs>
  <rect width="500" height="400" fill="#2d5a1e"/>
  <line x1="0" y1="100" x2="500" y2="100" stroke="white" stroke-width="1.5" stroke-dasharray="8,6" opacity="0.5"/>
  <line x1="0" y1="200" x2="500" y2="200" stroke="white" stroke-width="1.5" stroke-dasharray="8,6" opacity="0.5"/>
  <line x1="0" y1="300" x2="500" y2="300" stroke="white" stroke-width="2" opacity="0.7"/>
  <text x="250" y="30" text-anchor="middle" fill="white" font-family="Arial" font-size="18" font-weight="bold">Spread — QB Draw</text>
  <!-- Players -->
  <circle cx="250" cy="340" r="14" fill="#2563eb" stroke="white" stroke-width="2"/>
  <text x="250" y="345" text-anchor="middle" fill="white" font-size="11" font-weight="bold">QB</text>
  <circle cx="250" cy="300" r="14" fill="#2563eb" stroke="white" stroke-width="2"/>
  <text x="250" y="305" text-anchor="middle" fill="white" font-size="11" font-weight="bold">C</text>
  <circle cx="60" cy="300" r="14" fill="#2563eb" stroke="white" stroke-width="2"/>
  <text x="60" y="305" text-anchor="middle" fill="white" font-size="10" font-weight="bold">WR1</text>
  <circle cx="160" cy="300" r="14" fill="#2563eb" stroke="white" stroke-width="2"/>
  <text x="160" y="305" text-anchor="middle" fill="white" font-size="10" font-weight="bold">WR2</text>
  <circle cx="340" cy="300" r="14" fill="#2563eb" stroke="white" stroke-width="2"/>
  <text x="340" y="305" text-anchor="middle" fill="white" font-size="10" font-weight="bold">WR3</text>
  <circle cx="440" cy="300" r="14" fill="#2563eb" stroke="white" stroke-width="2"/>
  <text x="440" y="305" text-anchor="middle" fill="white" font-size="10" font-weight="bold">WR4</text>
  <circle cx="250" cy="370" r="14" fill="#2563eb" stroke="white" stroke-width="2"/>
  <text x="250" y="375" text-anchor="middle" fill="white" font-size="10" font-weight="bold">RB</text>
  <!-- QB run path -->
  <polyline points="250,326 250,280 260,200 250,140" fill="none" stroke="#22c55e" stroke-width="4" marker-end="url(#ag)"/>
  <text x="268" y="170" fill="#22c55e" font-size="13" font-weight="bold">RUN</text>
  <!-- Fake routes to sell pass -->
  <polyline points="60,286 60,200" fill="none" stroke="white" stroke-width="2" stroke-dasharray="6,4" marker-end="url(#aw)"/>
  <polyline points="160,286 160,200 200,200" fill="none" stroke="white" stroke-width="2" stroke-dasharray="6,4" marker-end="url(#aw)"/>
  <polyline points="340,286 340,200 300,200" fill="none" stroke="white" stroke-width="2" stroke-dasharray="6,4" marker-end="url(#aw)"/>
  <polyline points="440,286 440,200" fill="none" stroke="white" stroke-width="2" stroke-dasharray="6,4" marker-end="url(#aw)"/>
  <!-- RB blocks -->
  <polyline points="250,356 280,330" fill="none" stroke="white" stroke-width="2"/>
  <text x="288" y="328" fill="white" font-size="10">BLOCK</text>
  <text x="130" y="380" fill="white" font-size="11" font-style="italic">WRs sell go routes to clear lanes</text>
</svg>