<svg xmlns="http://www.w3.org/2000/svg" viewBox="0 0 500 400">
  <defs>
    <marker id="ar" markerWidth="8" markerHeight="6" refX="8" refY="3" orient="auto"><polygon points="0 0, 8 3, 0 6" fill="red"/></marker>
    <marker id="ap" markerWidth="8" markerHeight="6" refX="8" refY="3" orient="auto"><polygon points="0 0, 8 3, 0 6" fill="#c084fc"/></marker>
    <marker id="ag" markerWidth="8" markerHeight="6" refX="8" refY="3" orient="auto"><polygon points="0 0, 8 3, 0 6" fill="#22c55e"/></marker>
  </defs>
  <rect width="500" height="400" fill="#2d5a1e"/>
  <line x1="0" y1="100" x2="500" y2="100" stroke="white" stroke-width="1.5" stroke-dasharray="8,6" opacity="0.5"/>
  <line x1="0" y1="200" x2="500" y2="200" stroke="white" stroke-width="1.5" stroke-dasharray="8,6" opacity="0.5"/>
  <line x1="0" y1="300" x2="500" y2="300" stroke="white" stroke-width="2" opacity="0.7"/>
  <text x="250" y="30" text-anchor="middle" fill="white" font-family="Arial" font-size="18" font-weight="bold">Spread — Hook &amp; Lateral</text>
  <text x="250" y="50" text-anchor="middle" fill="#c084fc" font-family="Arial" font-size="13">⚠ TRICK PLAY</text>
  <!-- Players -->
  <circle cx="250" cy="340" r="14" fill="#2563eb" stroke="white" stroke-width="2"/>
  <text x="250" y="345" text-anchor="middle" fill="white" font-size="11" font-weight="bold">QB</text>
  <circle cx="250" cy="300" r="14" fill="#2563eb" stroke="white" stroke-width="2"/>
  <text x="250" y="305" text-anchor="middle" fill="white" font-size="11" font-weight="bold">C</text>
  <circle cx="60" cy="300" r="14" fill="#2563eb" stroke="white" stroke-width="2"/>
  <text x="60" y="305" text-anchor="middle" fill="white" font-size="10" font-weight="bold">WR1</text>
  <circle cx="160" cy="300" r="14" fill="#2563eb" stroke="white" stroke-width="2"/>
  <text x="160" y="305" text-anchor="middle" fill="white" font-size="10" font-weight="bold">WR2</text>
  <circle cx="340" cy="300" r="14" fill="#2563eb" stroke="white" stroke-width="2"/>
  <text x="340" y="305" text-anchor="middle" fill="white" font-size="10" font-weight="bold">WR3</text>
  <circle cx="440" cy="300" r="14" fill="#2563eb" stroke="white" stroke-width="2"/>
  <text x="440" y="305" text-anchor="middle" fill="white" font-size="10" font-weight="bold">WR4</text>
  <circle cx="300" cy="340" r="14" fill="#2563eb" stroke="white" stroke-width="2"/>
  <text x="300" y="345" text-anchor="middle" fill="white" font-size="10" font-weight="bold">RB</text>
  <!-- WR3: Hook route - catches ball -->
  <polyline points="340,286 340,210 330,220" fill="none" stroke="red" stroke-width="3" marker-end="url(#ar)"/>
  <text x="345" y="200" fill="red" font-size="10" font-weight="bold">HOOK</text>
  <!-- QB throws to WR3 on hook -->
  <polyline points="250,326 330,230" fill="none" stroke="#22c55e" stroke-width="2" stroke-dasharray="5,3" marker-end="url(#ag)"/>
  <text x="270" y="270" fill="#22c55e" font-size="10">PASS</text>
  <!-- WR3 laterals to WR4 running behind -->
  <polyline points="340,220 420,230" fill="none" stroke="#c084fc" stroke-width="3" marker-end="url(#ap)"/>
  <text x="360" y="214" fill="#c084fc" font-size="10" font-weight="bold">LATERAL</text>
  <!-- WR4: Timing route behind WR3 -->
  <polyline points="440,286 440,260 420,240" fill="none" stroke="orange" stroke-width="3"/>
  <text x="448" y="254" fill="orange" font-size="9">TRAIL</text>
  <!-- After lateral, WR4 runs upfield -->
  <polyline points="420,230 420,130" fill="none" stroke="#22c55e" stroke-width="3" marker-end="url(#ag)"/>
  <text x="428" y="150" fill="#22c55e" font-size="11" font-weight="bold">GO!</text>
  <!-- Others clear -->
  <polyline points="60,286 60,180" fill="none" stroke="white" stroke-width="2" stroke-dasharray="6,4"/>
  <polyline points="160,286 160,200 200,200" fill="none" stroke="white" stroke-width="2" stroke-dasharray="6,4"/>
</svg>